# Blender v2.79 (sub 0) OBJ File: ''
# www.blender.org
mtllib chair.mtl
o chair
v -0.499973 2.656347 0.713327
v -0.572284 2.714629 0.713327
v -0.499973 2.656347 0.503410
v -0.572284 2.714629 0.503410
v -0.579299 2.861950 0.713327
v -0.579299 2.861950 0.503410
v -0.467595 2.867887 0.713327
v -0.467595 2.867887 0.503410
v -0.395284 2.900264 0.713327
v -0.395284 2.900264 0.503410
v -0.368842 2.970414 0.713327
v -0.368842 2.970414 0.503410
v 1.023951 2.963938 0.713327
v 1.023951 2.963938 0.503410
v 1.050392 2.900264 0.713327
v 1.050392 2.900264 0.503410
v 1.116228 2.861950 0.713327
v 1.116228 2.861950 0.503410
v 1.227932 2.861950 0.713327
v 1.227932 2.861950 0.503410
v 1.221456 2.727581 0.713327
v 1.221456 2.727581 0.503410
v 1.162096 2.656347 0.713327
v 1.162096 2.656347 0.503410
v -0.387729 1.333709 -0.632518
v -0.247425 1.333709 -0.755554
v -0.387729 1.131886 -0.632518
v -0.247425 1.131886 -0.755554
v 0.920341 1.333709 -0.755554
v 0.920341 1.131886 -0.755554
v 1.036901 1.333709 -0.632518
v 1.036901 1.131886 -0.632518
v 1.189078 1.333709 0.435956
v 1.071977 1.333709 0.576260
v 1.189078 1.131886 0.435956
v 1.071977 1.131886 0.576260
v -0.399601 1.333709 0.576260
v -0.399601 1.131886 0.576260
v -0.528034 1.333709 0.435956
v -0.528034 1.131886 0.435956
v -0.182669 0.073667 -0.584490
v -0.065029 1.131886 -0.479262
v -0.307864 0.073667 -0.512179
v -0.190224 1.131886 -0.551573
v -0.307864 0.073667 -0.656801
v 1.020173 0.073667 -0.584490
v 0.859362 1.131886 -0.479262
v 0.895518 0.073667 -0.512179
v 0.734707 1.131886 -0.551573
v 0.895518 0.073667 -0.656801
v -0.191843 0.073667 0.552516
v -0.074203 1.131886 0.438654
v -0.316498 0.073667 0.624827
v -0.198858 1.131886 0.366343
v -0.316498 0.073667 0.480205
v 1.011539 0.073667 0.552516
v 0.850728 1.131886 0.438654
v 0.886884 0.073667 0.624827
v 0.726073 1.131886 0.366343
v 0.886884 0.073667 0.480205
v -0.284660 1.333709 0.546580
v -0.164861 1.333709 0.466714
v -0.266852 2.656347 0.603242
v -0.404998 2.656347 0.523916
v -0.284660 1.333709 0.386849
v 0.862060 1.333709 0.546580
v 0.982399 1.333709 0.466714
v 1.108672 2.656347 0.603242
v 0.970527 2.656347 0.523916
v 0.862060 1.333709 0.386849
v 0.311095 1.333709 0.506648
v 0.366677 1.333709 0.464017
v 0.366677 2.656347 0.600544
v 0.311095 2.656347 0.557913
v 0.311095 1.333709 0.421386
v 0.600338 1.333709 0.506648
v 0.655921 1.333709 0.464017
v 0.759530 2.656347 0.600544
v 0.686680 2.656347 0.557913
v 0.600338 1.333709 0.421386
v 0.022392 1.333709 0.506648
v 0.077974 1.333709 0.464017
v -0.002432 2.656347 0.600544
v -0.075822 2.656347 0.557913
v 0.022392 1.333709 0.421386
v -0.404998 2.656347 0.683108
v 0.970527 2.656347 0.683108
v 0.311095 2.656347 0.643175
v 0.686680 2.656347 0.643175
v -0.075822 2.656347 0.643175
v -0.190224 1.131886 -0.407491
v 0.734707 1.131886 -0.407491
v -0.198858 1.131886 0.510425
v 0.726073 1.131886 0.510425
vt 0.074219 0.542969
vt 0.039063 0.542969
vt 0.074219 0.691406
vt 0.039063 0.691406
vt 0.035156 0.542969
vt 0.035156 0.691406
vt 0.093750 0.542969
vt 0.093750 0.691406
vt 0.128906 0.542969
vt 0.128906 0.691406
vt 0.144531 0.542969
vt 0.144531 0.691406
vt 0.867188 0.542969
vt 0.867188 0.691406
vt 0.882813 0.542969
vt 0.882813 0.691406
vt 0.914063 0.542969
vt 0.914063 0.691406
vt 0.972656 0.542969
vt 0.972656 0.691406
vt 0.968750 0.542969
vt 0.968750 0.691406
vt 0.941406 0.542969
vt 0.941406 0.691406
vt 0.066406 0.675781
vt 0.117188 0.679688
vt 0.070313 0.554688
vt 0.101563 0.507813
vt 0.886719 0.507813
vt 0.101563 0.507813
vt 0.886719 0.507813
vt 0.117188 0.679688
vt 0.863281 0.675781
vt 0.152344 0.707031
vt 0.832031 0.707031
vt 0.164063 0.765625
vt 0.820313 0.757813
vt 0.113281 0.429688
vt 0.191406 0.429688
vt 0.113281 0.253906
vt 0.191406 0.253906
vt 0.824219 0.429688
vt 0.824219 0.253906
vt 0.890625 0.429688
vt 0.890625 0.253906
vt 0.972656 0.429688
vt 0.910156 0.429688
vt 0.972656 0.253906
vt 0.910156 0.253906
vt 0.105469 0.429688
vt 0.105469 0.253906
vt 0.039063 0.429688
vt 0.039063 0.253906
vt 0.820313 0.757813
vt 0.832031 0.707031
vt 0.164063 0.765625
vt 0.152344 0.707031
vt 0.863281 0.675781
vt 0.175781 0.984375
vt 0.898438 0.898438
vt 0.097656 0.898438
vt 0.019531 0.121094
vt 0.984375 0.121094
vt 0.089844 0.019531
vt 0.917969 0.019531
vt 0.917969 0.019531
vt 0.984375 0.121094
vt 0.089844 0.019531
vt 0.019531 0.121094
vt 0.898438 0.898438
vt 0.097656 0.898438
vt 0.175781 0.984375
vt 0.023438 0.222656
vt 0.957031 0.218750
vt 0.023438 0.503906
vt 0.957031 0.500000
vt 0.023438 0.503906
vt 0.011719 0.246094
vt 0.964844 0.242188
vt 0.015625 0.492188
vt 0.964844 0.488281
vt 0.015625 0.492188
vt 0.023438 0.222656
vt 0.957031 0.218750
vt 0.023438 0.503906
vt 0.957031 0.500000
vt 0.023438 0.503906
vt 0.011719 0.246094
vt 0.964844 0.242188
vt 0.015625 0.492188
vt 0.964844 0.488281
vt 0.015625 0.492188
vt 0.125000 0.933594
vt 0.125000 0.816406
vt 0.804688 0.816406
vt 0.804688 0.933594
vt 0.125000 0.933594
vt 0.125000 0.937500
vt 0.125000 0.812500
vt 0.792969 0.812500
vt 0.792969 0.937500
vt 0.125000 0.937500
vt 0.125000 0.937500
vt 0.125000 0.812500
vt 0.796875 0.812500
vt 0.796875 0.937500
vt 0.125000 0.937500
vt 0.117188 0.937500
vt 0.117188 0.808594
vt 0.804688 0.808594
vt 0.804688 0.937500
vt 0.117188 0.937500
vt 0.121094 0.933594
vt 0.121094 0.812500
vt 0.800781 0.812500
vt 0.800781 0.933594
vt 0.121094 0.933594
vt 0.929688 0.875000
vt 0.914063 0.976563
vt 0.140625 0.847656
vt 0.125000 0.949219
vt 0.929688 0.875000
vt 0.914063 0.976563
vt 0.140625 0.847656
vt 0.125000 0.949219
vt 0.925781 0.898438
vt 0.917969 0.953125
vt 0.136719 0.871094
vt 0.128906 0.925781
vt 0.925781 0.898438
vt 0.917969 0.953125
vt 0.136719 0.871094
vt 0.128906 0.925781
vt 0.925781 0.898438
vt 0.917969 0.953125
vt 0.136719 0.871094
vt 0.128906 0.925781
vt 0.917969 0.675781
vt 0.914063 0.566406
vt 0.066406 0.675781
vt 0.070313 0.554688
vt 0.917969 0.675781
vt 0.914063 0.566406
vt 0.070313 0.445313
vt 0.941406 0.445313
vt 0.070313 0.363281
vt 0.941406 0.363281
vt 0.941406 0.445313
vt 0.070313 0.445313
vt 0.941406 0.363281
vt 0.070313 0.363281
vt 0.820313 0.265625
vt 0.820313 0.347656
vt 0.421875 0.332031
vt 0.421875 0.417969
vt 0.820313 0.265625
vt 0.820313 0.347656
vt 0.421875 0.332031
vt 0.421875 0.417969
vt 0.906250 0.324219
vt 0.906250 0.410156
vt 0.503906 0.265625
vt 0.507813 0.351563
vt 0.906250 0.324219
vt 0.906250 0.410156
vt 0.503906 0.265625
vt 0.507813 0.351563
vt 0.804688 0.933594
vt 0.792969 0.937500
vt 0.796875 0.937500
vt 0.804688 0.937500
vt 0.800781 0.933594
vt 0.832031 0.984375
vt 0.832031 0.984375
vt 0.957031 0.500000
vt 0.964844 0.488281
vt 0.957031 0.500000
vt 0.964844 0.488281
vn -0.1803 -0.7983 0.5746
vn -0.6602 -0.4700 0.5858
vn -0.3606 -0.7347 -0.5746
vn -0.7690 -0.2559 -0.5858
vn -0.8357 0.3682 0.4075
vn -0.4503 0.7945 -0.4075
vn -0.0886 0.5010 0.8609
vn -0.1499 0.4862 -0.8609
vn -0.4275 0.5311 0.7316
vn -0.5560 0.3946 -0.7315
vn -0.5790 0.5290 0.6204
vn -0.2873 0.7298 -0.6204
vn 0.3395 0.8674 0.3639
vn 0.6739 0.6430 -0.3639
vn 0.5669 0.3935 0.7237
vn 0.4655 0.5095 -0.7237
vn 0.1739 0.4717 0.8644
vn 0.0870 0.4952 -0.8644
vn 0.4145 0.8099 0.4150
vn 0.8289 0.3750 -0.4150
vn 0.7921 -0.2109 0.5728
vn 0.7261 -0.3804 -0.5728
vn 0.3776 -0.5603 0.7372
vn 0.1888 -0.6488 -0.7372
vn -0.7626 0.5772 -0.2921
vn -0.3805 0.5772 -0.7225
vn -0.6667 -0.5772 -0.4716
vn -0.1902 -0.5772 -0.7942
vn 0.2454 0.3381 -0.9086
vn 0.4908 -0.3380 -0.8030
vn 0.4957 0.8121 -0.3079
vn 0.5493 -0.8121 -0.1969
vn 0.6728 0.7346 0.0878
vn 0.5247 0.3418 0.7797
vn 0.6184 -0.7346 0.2793
vn 0.2623 -0.3418 0.9024
vn -0.2156 0.5847 0.7821
vn -0.4313 -0.5847 0.6871
vn -0.6059 0.7369 0.2997
vn -0.6683 -0.7369 0.1019
vn 0.7327 -0.5290 -0.4282
vn 0.8590 -0.1441 0.4913
vn -0.4443 -0.4705 0.7624
vn -0.4908 0.1401 -0.8599
vn -0.3754 -0.6529 -0.6578
vn 0.8078 -0.3732 -0.4562
vn 0.8597 0.0808 0.5044
vn -0.4093 -0.5532 0.7256
vn -0.5003 0.0101 -0.8658
vn -0.3531 -0.7085 -0.6110
vn 0.7020 -0.5907 -0.3979
vn 0.8625 -0.0414 0.5043
vn -0.4674 -0.3329 0.8189
vn -0.5024 -0.0371 -0.8639
vn -0.3472 -0.7233 -0.5969
vn 0.5877 -0.7323 -0.3440
vn 0.8557 0.1824 0.4843
vn -0.3555 -0.7058 0.6127
vn -0.4838 -0.1660 -0.8593
vn -0.2043 -0.9092 -0.3628
vn -0.4792 -0.1370 0.8669
vn 0.8757 0.1202 -0.4677
vn 0.8797 0.0227 0.4750
vn -0.4901 0.0419 -0.8707
vn -0.4756 0.0478 -0.8784
vn -0.4904 -0.0534 0.8699
vn 0.8770 -0.0299 -0.4796
vn 0.8762 -0.1278 0.4646
vn -0.4816 0.1258 -0.8673
vn -0.4668 0.1289 -0.8749
vn -0.4435 -0.0920 0.8915
vn 0.9163 0.0411 -0.3983
vn 0.9163 -0.0411 0.3983
vn -0.4435 0.0920 -0.8915
vn -0.4755 -0.0637 0.8774
vn 0.8922 -0.0192 -0.4513
vn 0.8936 -0.1159 0.4336
vn -0.4676 0.1175 -0.8761
vn -0.4381 0.1206 -0.8908
vn -0.4673 -0.1293 0.8746
vn 0.8903 0.1003 -0.4442
vn 0.8958 0.0124 0.4443
vn -0.4759 0.0517 -0.8780
vn -0.4464 0.0590 -0.8929
vn -0.4929 -0.1336 0.8597
vn -0.5030 -0.0478 0.8630
vn -0.5007 -0.0565 0.8638
vn -0.4939 -0.1255 0.8604
vn -0.5039 -0.0294 0.8633
vn -0.4858 -0.1588 0.8595
vn -0.4911 0.1474 0.8586
vn -0.5025 0.0171 0.8644
usemtl spork.bmp
s 1
f 1/1/1 2/2/2 3/3/3
f 3/3/3 2/2/2 4/4/4
f 2/2/2 5/5/5 4/4/4
f 4/4/4 5/5/5 6/6/6
f 5/5/5 7/7/7 6/6/6
f 6/6/6 7/7/7 8/8/8
f 7/7/7 9/9/9 8/8/8
f 8/8/8 9/9/9 10/10/10
f 9/9/9 11/11/11 10/10/10
f 10/10/10 11/11/11 12/12/12
f 11/11/11 13/13/13 12/12/12
f 12/12/12 13/13/13 14/14/14
f 13/13/13 15/15/15 14/14/14
f 14/14/14 15/15/15 16/16/16
f 15/15/15 17/17/17 16/16/16
f 16/16/16 17/17/17 18/18/18
f 17/17/17 19/19/19 18/18/18
f 18/18/18 19/19/19 20/20/20
f 19/19/19 21/21/21 20/20/20
f 20/20/20 21/21/21 22/22/22
f 21/21/21 23/23/23 22/22/22
f 22/22/22 23/23/23 24/24/24
f 6/25/6 8/26/8 4/27/4
f 4/27/4 8/26/8 3/28/3
f 8/26/8 24/29/24 3/28/3
f 3/28/3 24/29/24 1/30/1
f 24/29/24 23/31/23 1/30/1
f 1/30/1 23/31/23 7/32/7
f 23/31/23 17/33/17 7/32/7
f 7/32/7 17/33/17 9/34/9
f 17/33/17 15/35/15 9/34/9
f 9/34/9 15/35/15 11/36/11
f 15/35/15 13/37/13 11/36/11
f 25/38/25 26/39/26 27/40/27
f 27/40/27 26/39/26 28/41/28
f 26/39/26 29/42/29 28/41/28
f 28/41/28 29/42/29 30/43/30
f 29/42/29 31/44/31 30/43/30
f 30/43/30 31/44/31 32/45/32
f 33/46/33 34/47/34 35/48/35
f 35/48/35 34/47/34 36/49/36
f 34/47/34 37/50/37 36/49/36
f 36/49/36 37/50/37 38/51/38
f 37/50/37 39/52/39 38/51/38
f 38/51/38 39/52/39 40/53/40
f 14/54/14 16/55/16 12/56/12
f 12/56/12 16/55/16 10/57/10
f 16/55/16 18/58/18 10/57/10
f 10/57/10 18/58/18 8/26/8
f 18/58/18 24/29/24 8/26/8
f 28/59/28 32/60/32 27/61/27
f 27/61/27 32/60/32 40/62/40
f 32/60/32 35/63/35 40/62/40
f 40/62/40 35/63/35 38/64/38
f 35/63/35 36/65/36 38/64/38
f 34/66/34 33/67/33 37/68/37
f 37/68/37 33/67/33 39/69/39
f 33/67/33 31/70/31 39/69/39
f 39/69/39 31/70/31 25/71/25
f 31/70/31 26/72/26 25/71/25
f 41/73/41 42/74/42 43/75/43
f 41/73/41 44/76/44 42/74/42
f 41/73/41 45/77/45 44/76/44
f 41/73/41 43/75/43 45/77/45
f 46/78/46 47/79/47 48/80/48
f 46/78/46 49/81/49 47/79/47
f 46/78/46 50/82/50 49/81/49
f 46/78/46 48/80/48 50/82/50
f 51/83/51 52/84/52 53/85/53
f 51/83/51 54/86/54 52/84/52
f 51/83/51 55/87/55 54/86/54
f 51/83/51 53/85/53 55/87/55
f 56/88/56 57/89/57 58/90/58
f 56/88/56 59/91/59 57/89/57
f 56/88/56 60/92/60 59/91/59
f 56/88/56 58/90/58 60/92/60
f 61/93/61 62/94/62 63/95/63
f 63/95/63 62/94/62 64/96/64
f 62/94/62 65/97/65 64/96/64
f 66/98/66 67/99/67 68/100/68
f 68/100/68 67/99/67 69/101/69
f 67/99/67 70/102/70 69/101/69
f 71/103/71 72/104/72 73/105/73
f 73/105/73 72/104/72 74/106/74
f 72/104/72 75/107/74 74/106/74
f 76/108/75 77/109/76 78/110/77
f 78/110/77 77/109/76 79/111/78
f 77/109/76 80/112/79 79/111/78
f 81/113/80 82/114/81 83/115/82
f 83/115/82 82/114/81 84/116/83
f 82/114/81 85/117/84 84/116/83
f 86/118/85 64/119/64 61/120/61
f 61/120/61 64/119/64 65/121/65
f 87/122/86 69/123/69 66/124/66
f 66/124/66 69/123/69 70/125/70
f 88/126/71 74/127/74 71/128/71
f 71/128/71 74/127/74 75/129/74
f 89/130/87 79/131/78 76/132/75
f 76/132/75 79/131/78 80/133/79
f 90/134/88 84/135/83 81/136/80
f 81/136/80 84/135/83 85/137/84
f 19/138/19 17/33/17 21/139/21
f 21/139/21 17/33/17 23/31/23
f 5/140/5 2/141/2 7/32/7
f 7/32/7 2/141/2 1/30/1
f 20/142/20 22/143/22 18/58/18
f 18/58/18 22/143/22 24/29/24
f 31/144/31 33/145/33 32/146/32
f 32/146/32 33/145/33 35/147/35
f 39/148/39 25/149/25 40/150/40
f 40/150/40 25/149/25 27/151/27
f 91/152/89 44/153/44 43/154/43
f 43/154/43 44/153/44 45/155/45
f 92/156/90 49/157/49 48/158/48
f 48/158/48 49/157/49 50/159/50
f 93/160/91 54/161/54 53/162/53
f 53/162/53 54/161/54 55/163/55
f 94/164/92 59/165/59 58/166/58
f 58/166/58 59/165/59 60/167/60
f 61/93/61 63/95/63 86/168/85
f 66/98/66 68/100/68 87/169/86
f 71/103/71 73/105/73 88/170/71
f 76/108/75 78/110/77 89/171/87
f 81/113/80 83/115/82 90/172/88
f 32/60/32 28/59/28 30/173/30
f 26/72/26 31/70/31 29/174/29
f 43/75/43 42/74/42 91/175/89
f 48/80/48 47/79/47 92/176/90
f 53/85/53 52/84/52 93/177/91
f 58/90/58 57/89/57 94/178/92
