# Wavefront OBJ exported by MilkShape 3D

mtllib chick.mtl

v 0.380398 0.848975 0.528573
v -0.364412 0.871760 0.528573
v 0.354924 0.701949 0.056173
v -0.364928 0.713081 0.064573
v -0.791007 1.122794 0.345373
v -0.791781 1.020270 0.056173
v -1.351146 2.115782 0.064573
v -0.791007 1.122794 -0.224627
v -0.871241 1.430936 -0.405827
v -0.285367 1.202346 -0.696627
v -0.284676 1.625171 -0.696227
v 0.340896 1.624244 -0.696227
v 0.342030 1.921986 -0.405879
v 0.834453 1.786098 -0.257045
v 0.793868 2.126437 -0.091430
v 0.979750 1.945307 -0.150224
v 1.113781 2.105526 -0.158604
v 1.207914 1.968625 0.047797
v 1.405922 2.173407 -0.241375
v 1.686565 2.184823 -0.158551
v 1.700268 2.321868 -0.241342
v 2.046580 2.184726 0.047880
v 1.739801 2.423958 -0.158534
v 1.779733 2.492059 0.047873
v 1.487294 2.616960 -0.158545
v 1.487749 2.651747 0.047857
v 1.140425 2.606346 0.047825
v 1.487259 2.616939 0.254255
v 1.194266 2.504091 0.254224
v 1.474452 2.503631 0.404248
v 1.153841 2.401180 0.296215
v 1.459959 2.390395 0.445041
v 1.168198 2.309772 0.353812
v 1.405873 2.173375 0.345425
v 1.113746 2.105503 0.254196
v 0.993963 1.649255 0.064562
v 0.833884 1.534343 -0.407026
v 0.327273 1.202170 -0.696627
v -0.072809 0.552420 -0.679890
v -0.312398 0.642835 -0.754298
v -0.126603 0.484625 -0.705052
v -0.391306 0.484200 -0.705014
v 0.047787 0.152782 -0.637725
v -0.098367 0.153112 -0.637704
v 0.433540 0.027876 -0.994122
v -0.284598 0.039029 -0.588426
v 0.140289 0.016739 -0.646075
v 0.500564 0.016362 -0.332926
v 0.046832 0.129550 -0.530914
v -0.099890 0.437716 -0.490234
v -0.072684 0.507235 -0.465070
v 0.380649 0.849267 -0.407427
v 0.833030 1.305637 -0.407026
v 0.647015 0.952085 -0.315826
v 0.859331 1.157766 -0.224626
v 0.687199 0.849784 0.064574
v 0.860185 1.066182 0.064574
v 0.633050 0.940477 0.436573
v 0.859331 1.157766 0.345374
v 0.833029 1.305637 0.527774
v 0.833884 1.534343 0.527774
v 0.834399 1.786063 0.378955
v 0.341951 1.921937 0.527721
v 0.861374 2.138291 0.221776
v 0.607914 2.104618 0.064553
v 0.808491 2.161263 0.056173
v 1.021681 2.229596 -0.042205
v 1.154682 2.310319 -0.248589
v 1.460025 2.390435 -0.331359
v 1.140725 2.434822 -0.199384
v 1.474512 2.503670 -0.298952
v 1.193421 2.503298 -0.158576
v -0.111306 0.130414 0.653510
v 0.047116 0.130748 0.653483
v -0.284696 0.037919 0.709986
v 0.500050 0.015824 0.454263
v 0.047134 0.152434 0.760272
v 0.140991 0.015982 0.767525
v 0.433266 0.027806 1.115469
v -0.097310 0.152768 0.760297
v -0.417519 0.449092 0.619802
v -0.100342 0.438437 0.611353
v -0.072723 0.507317 0.587314
v -0.072353 0.552355 0.800892
v 0.393793 1.202966 0.817773
v -0.351506 1.201846 0.817773
v -0.350919 1.613309 0.818173
v -0.938285 1.648162 0.527773
v -0.911481 1.876168 0.345373
v -1.123931 2.047381 0.064573
v -0.870603 1.910355 -0.224627
v -0.871484 2.013258 0.064573
v -0.631132 2.036726 0.056173
v -0.258806 2.138865 0.056173
v -0.285000 1.921164 0.527773
v 0.380253 1.602204 0.818173
v -0.110642 0.129857 -0.530892
v -0.417534 0.449387 -0.498595
v -0.351240 0.621377 -0.490283
v -0.364241 0.872560 -0.407427
v -0.391523 0.483807 0.826180
v -0.351289 0.620156 0.612505
v -0.312970 0.642921 0.875287
v -0.871242 1.430936 0.527773
v 1.700114 2.184296 0.047850
v 1.686530 2.184800 0.254249
v 1.700218 2.321838 0.345457
v 1.739766 2.423937 0.254266
v 0.941497 2.264903 0.047790
v 1.114804 2.423897 0.188213
v 1.048819 2.184397 0.155795
v 1.101709 2.436296 -0.067387
v 1.034983 2.423540 0.047806
v -0.871403 1.659005 -0.405827
v -0.284999 1.921164 -0.407027
v 0.234549 2.161156 0.064573
v -0.126598 0.484473 0.826135
v 0.979713 1.945284 0.270976
v 0.953152 1.340011 0.064574
v 1.353606 2.674673 0.047847
v 1.607895 2.640390 0.047867
v 1.220430 2.857200 0.047845
v 1.567345 2.869501 0.047876
v 1.805879 2.778076 0.047891
v 1.448015 2.879976 0.047866
v 1.886506 2.687553 0.047893
v 1.886527 2.777561 0.047898
v 1.500693 2.925527 0.047873
v 1.141047 2.868706 0.047839
v 1.114236 2.811134 0.047834
# 130 vertices

vt 0.493590 0.309353
vt 0.275641 0.316547
vt 0.487179 0.266187
vt 0.275641 0.266187
vt 0.153846 0.395683
vt 0.153846 0.366906
vt 0.000000 0.705036
vt 0.128205 0.496403
vt 0.301282 0.424460
vt 0.301282 0.553957
vt 0.480769 0.553957
vt 0.480769 0.647482
vt 0.628205 0.604317
vt 0.615385 0.712230
vt 0.666667 0.654676
vt 0.711538 0.705036
vt 0.737179 0.661870
vt 0.794872 0.726619
vt 0.878205 0.726619
vt 0.878205 0.769784
vt 0.980769 0.726619
vt 0.891026 0.805755
vt 0.903846 0.827338
vt 0.814103 0.863309
vt 0.814103 0.877698
vt 0.717949 0.863309
vt 0.730769 0.827338
vt 0.814103 0.827338
vt 0.717949 0.798561
vt 0.807692 0.791367
vt 0.724359 0.769784
vt 0.673077 0.561151
vt 0.628205 0.525180
vt 0.480769 0.424460
vt 0.365385 0.215827
vt 0.294872 0.244604
vt 0.346154 0.194245
vt 0.269231 0.194245
vt 0.397436 0.093525
vt 0.352564 0.093525
vt 0.512821 0.050360
vt 0.301282 0.057554
vt 0.423077 0.050360
vt 0.532051 0.050360
vt 0.397436 0.086331
vt 0.352564 0.179856
vt 0.365385 0.201439
vt 0.628205 0.453237
vt 0.570513 0.345324
vt 0.634615 0.410072
vt 0.583333 0.309353
vt 0.634615 0.381295
vt 0.570513 0.338129
vt 0.634615 0.712230
vt 0.564103 0.705036
vt 0.621795 0.719424
vt 0.679487 0.741007
vt 0.717949 0.769784
vt 0.717949 0.805755
vt 0.352564 0.086331
vt 0.262821 0.187050
vt 0.500000 0.424460
vt 0.282051 0.424460
vt 0.282051 0.553957
vt 0.108974 0.561151
vt 0.121795 0.633094
vt 0.057692 0.683453
vt 0.128205 0.640288
vt 0.128205 0.676259
vt 0.198718 0.683453
vt 0.307692 0.712230
vt 0.301282 0.647482
vt 0.493590 0.546763
vt 0.282051 0.237410
vt 0.660256 0.755396
vt 0.711538 0.805755
vt 0.692308 0.726619
vt 0.705128 0.805755
vt 0.685897 0.805755
vt 0.128205 0.568345
vt 0.455128 0.719424
vt 0.660256 0.467626
vt 0.775641 0.884892
vt 0.852564 0.870504
vt 0.737179 0.942446
vt 0.839744 0.942446
vt 0.910256 0.913669
vt 0.807692 0.949640
vt 0.935897 0.884892
vt 0.935897 0.913669
vt 0.820513 0.964029
vt 0.717949 0.942446
vt 0.711538 0.928058
# 93 texture coordinates

vn 0.455883 -0.874035 0.168027
vn -0.654717 -0.736828 0.168613
vn 0.280986 -0.959120 -0.033696
vn -0.320549 -0.947223 -0.004188
vn -0.699343 -0.598341 0.391035
vn -0.729255 -0.681764 -0.058181
vn -0.975993 0.216664 -0.022245
vn -0.714493 -0.546000 -0.437473
vn -0.639895 -0.198780 -0.742308
vn -0.323434 -0.127296 -0.937649
vn -0.227242 0.409006 -0.883785
vn 0.255422 0.323498 -0.911103
vn 0.075373 0.807593 -0.584903
vn 0.590359 0.257554 -0.764946
vn -0.119663 0.735005 -0.667419
vn 0.351102 -0.018270 -0.936159
vn -0.153156 -0.251145 -0.955756
vn 0.486788 -0.856909 -0.169540
vn 0.105503 -0.624026 -0.774249
vn 0.282507 -0.840564 -0.462213
vn 0.451749 -0.153706 -0.878805
vn 0.950249 -0.311312 -0.010579
vn 0.590191 0.513571 -0.622832
vn 0.618365 0.785891 0.000093
vn 0.149171 0.891432 -0.427899
vn 0.184626 0.982809 0.000066
vn -0.597197 0.802087 0.003537
vn 0.150015 0.896058 0.417823
vn -0.549898 0.625847 0.553107
vn -0.016549 0.576530 0.816909
vn -0.666300 0.352875 0.656905
vn 0.049558 0.138667 0.989098
vn -0.567325 -0.046466 0.822182
vn 0.059758 -0.609225 0.790743
vn 0.038075 -0.228685 0.972756
vn 0.978312 -0.168123 0.120999
vn 0.723768 0.135356 -0.676638
vn 0.458000 -0.255491 -0.851446
vn 0.676137 -0.265978 -0.687091
vn -0.559186 0.089935 -0.824149
vn 0.694800 -0.011535 -0.719111
vn -0.607710 -0.140138 -0.781697
vn 0.545641 0.681136 -0.488190
vn -0.687227 0.190536 -0.701010
vn 0.172037 0.760074 -0.626650
vn -0.710214 -0.455923 0.536405
vn 0.718091 -0.691913 -0.074842
vn 0.406488 0.807453 0.427537
vn 0.434441 0.432844 0.789878
vn 0.674210 -0.275503 0.685230
vn 0.602402 -0.519502 0.605994
vn 0.337101 -0.913486 -0.227827
vn 0.732721 -0.282485 -0.619130
vn 0.607047 -0.683770 -0.404911
vn 0.828043 -0.485928 -0.279676
vn 0.617374 -0.786458 -0.018246
vn 0.785693 -0.615566 0.061354
vn 0.595926 -0.707639 0.379632
vn 0.891019 -0.362028 0.273901
vn 0.722869 -0.247346 0.645198
vn 0.709823 0.283911 0.644628
vn 0.590944 0.241315 0.769774
vn 0.140727 0.775709 0.615200
vn -0.026767 0.753991 0.656340
vn -0.143360 0.989646 0.006981
vn -0.368748 0.929187 0.025224
vn -0.616569 0.428432 -0.660521
vn -0.631854 -0.054663 -0.773157
vn 0.024393 0.021191 -0.999478
vn -0.601624 0.484221 -0.635278
vn 0.009550 0.580448 -0.814241
vn -0.505538 0.703741 -0.499180
vn -0.407189 -0.194814 -0.892326
vn 0.439322 0.436076 -0.785387
vn -0.714828 -0.453332 -0.532458
vn 0.417650 0.809571 -0.412509
vn 0.544388 0.679162 0.492322
vn 0.720507 -0.689119 0.077359
vn 0.167977 0.759764 0.628126
vn -0.684606 0.189749 0.703783
vn -0.664224 -0.377370 -0.645290
vn 0.672248 -0.277569 -0.686322
vn 0.585973 -0.536625 -0.607181
vn 0.670874 -0.273613 0.689249
vn 0.399765 -0.280615 0.872607
vn -0.414424 -0.174605 0.893177
vn -0.181970 0.362058 0.914221
vn -0.515997 0.185495 0.836265
vn -0.142116 0.830341 0.538830
vn 0.237574 0.969193 -0.064995
vn -0.120490 0.859595 -0.496567
vn -0.017867 0.996213 -0.085094
vn -0.182637 0.982266 0.042386
vn -0.126250 0.991968 0.007719
vn -0.086105 0.789216 0.608049
vn 0.293265 0.368578 0.882126
vn -0.404824 -0.195140 0.893330
vn -0.664018 -0.379963 0.643978
vn -0.750241 0.104041 0.652928
vn -0.741766 -0.643792 -0.187924
vn -0.608017 -0.138217 0.781800
vn -0.749659 0.103638 -0.653659
vn -0.571861 0.069486 0.817403
vn -0.732808 -0.350806 0.583033
vn 0.205590 -0.978638 -0.000037
vn 0.283619 -0.849520 0.444833
vn 0.472297 -0.166079 0.865652
vn 0.598788 0.530773 0.599778
vn -0.907166 0.419792 -0.028723
vn -0.783033 0.463126 0.415179
vn -0.601399 0.466920 0.648309
vn -0.774724 0.531401 -0.342660
vn -0.863742 0.503593 0.018562
vn -0.456596 0.296816 -0.838702
vn -0.095760 0.812669 -0.574803
vn 0.053483 0.998561 0.003891
vn 0.693319 -0.011332 0.720542
vn 0.442839 -0.060646 0.894548
vn 0.973575 -0.228354 0.002468
vn 0.000000 -1.000000 0.000000
vn 0.000000 1.000000 0.000000
vn 0.000000 0.000000 0.000000
# 122 normals

g skin.bmp
usemtl skin.bmp
s 1
f 1/1/1 2/2/2 3/3/3
f 3/3/3 2/2/2 4/4/4
f 2/2/2 5/5/5 4/4/4
f 4/4/4 5/5/5 6/6/6
f 5/5/5 7/7/7 6/6/6
f 6/6/6 7/7/7 8/5/8
f 7/7/7 9/8/9 8/5/8
f 8/5/8 9/8/9 10/9/10
f 9/8/9 11/10/11 10/9/10
f 10/9/10 11/10/11 12/11/12
f 11/10/11 13/12/13 12/11/12
f 12/11/12 13/12/13 14/13/14
f 13/12/13 15/14/15 14/13/14
f 14/13/14 15/14/15 16/15/16
f 15/14/15 17/16/17 16/15/16
f 16/15/16 17/16/17 18/17/18
f 17/16/17 19/18/19 18/17/18
f 18/17/18 19/18/19 20/19/20
f 19/18/19 21/20/21 20/19/20
f 20/19/20 21/20/21 22/21/22
f 21/20/21 23/22/23 22/21/22
f 22/21/22 23/22/23 24/23/24
f 23/22/23 25/24/25 24/23/24
f 24/23/24 25/24/25 26/25/26
f 25/24/25 27/26/27 26/25/26
f 26/25/26 27/26/27 28/24/28
f 27/26/27 29/27/29 28/24/28
f 28/24/28 29/27/29 30/28/30
f 29/27/29 31/29/31 30/28/30
f 30/28/30 31/29/31 32/30/32
f 31/29/31 33/31/33 32/30/32
f 32/30/32 33/31/33 34/18/34
f 33/31/33 35/16/35 34/18/34
f 34/18/34 35/16/35 18/17/18
f 35/16/35 36/32/36 18/17/18
f 18/17/18 36/32/36 14/13/14
f 36/32/36 37/33/37 14/13/14
f 14/13/14 37/33/37 12/11/12
f 37/33/37 38/34/38 12/11/12
f 12/11/12 38/34/38 10/9/10
f 38/34/38 39/35/39 10/9/10
f 10/9/10 39/35/39 40/36/40
f 39/35/39 41/37/41 40/36/40
f 40/36/40 41/37/41 42/38/42
f 41/37/41 43/39/43 42/38/42
f 42/38/42 43/39/43 44/40/44
f 43/39/43 45/41/45 44/40/44
f 44/40/44 45/41/45 46/42/46
f 45/41/45 47/43/47 46/42/46
f 46/42/46 47/43/47 48/44/48
f 47/43/47 43/39/43 48/44/48
f 48/44/48 43/39/43 49/45/49
f 43/39/43 41/37/41 49/45/49
f 49/45/49 41/37/41 50/46/50
f 41/37/41 39/35/39 50/46/50
f 50/46/50 39/35/39 51/47/51
f 39/35/39 38/34/38 51/47/51
f 51/47/51 38/34/38 52/1/52
f 38/34/38 53/48/53 52/1/52
f 52/1/52 53/48/53 54/49/54
f 53/48/53 55/50/55 54/49/54
f 54/49/54 55/50/55 3/3/3
f 55/50/55 56/51/56 3/3/3
f 3/3/3 56/51/56 1/1/1
f 56/51/56 57/52/57 1/1/1
f 1/1/1 57/52/57 58/53/58
f 57/52/57 59/50/59 58/53/58
f 58/53/58 59/50/59 60/48/60
f 59/50/59 36/32/36 60/48/60
f 60/48/60 36/32/36 61/33/61
f 36/32/36 62/13/62 61/33/61
f 61/33/61 62/13/62 63/12/63
f 62/13/62 64/54/64 63/12/63
f 63/12/63 64/54/64 65/55/65
f 64/54/64 66/56/66 65/55/65
f 65/55/65 66/56/66 15/14/15
f 66/56/66 67/57/67 15/14/15
f 15/14/15 67/57/67 17/16/17
f 67/57/67 68/58/68 17/16/17
f 17/16/17 68/58/68 69/30/69
f 68/58/68 70/59/70 69/30/69
f 69/30/69 70/59/70 71/28/71
f 70/59/70 72/27/72 71/28/71
f 71/28/71 72/27/72 25/24/25
f 72/27/72 27/26/27 25/24/25
f 73/60/73 74/45/74 75/42/75
f 75/42/75 74/45/74 76/44/76
f 74/45/74 77/39/77 76/44/76
f 76/44/76 77/39/77 78/43/78
f 77/39/77 79/41/79 78/43/78
f 78/43/78 79/41/79 75/42/75
f 79/41/79 80/40/80 75/42/75
f 75/42/75 80/40/80 73/60/73
f 80/40/80 81/61/81 73/60/73
f 73/60/73 81/61/81 82/46/82
f 81/61/81 83/47/83 82/46/82
f 82/46/82 83/47/83 84/35/84
f 83/47/83 85/62/85 84/35/84
f 84/35/84 85/62/85 86/63/86
f 85/62/85 87/64/87 86/63/86
f 86/63/86 87/64/87 88/65/88
f 87/64/87 89/66/89 88/65/88
f 88/65/88 89/66/89 7/7/7
f 89/66/89 90/67/90 7/7/7
f 7/7/7 90/67/90 91/68/91
f 90/67/90 92/69/92 91/68/91
f 91/68/91 92/69/92 93/70/93
f 92/69/92 89/66/89 93/70/93
f 93/70/93 89/66/89 94/71/94
f 89/66/89 95/72/95 94/71/94
f 94/71/94 95/72/95 63/12/63
f 95/72/95 96/73/96 63/12/63
f 63/12/63 96/73/96 61/33/61
f 96/73/96 60/48/60 61/33/61
f 48/44/48 49/45/49 46/42/46
f 46/42/46 49/45/49 97/60/97
f 49/45/49 50/46/50 97/60/97
f 97/60/97 50/46/50 98/61/98
f 50/46/50 51/47/51 98/61/98
f 98/61/98 51/47/51 99/74/99
f 51/47/51 52/1/52 99/74/99
f 99/74/99 52/1/52 100/2/100
f 52/1/52 4/4/4 100/2/100
f 100/2/100 4/4/4 6/6/6
f 80/40/80 101/38/101 81/61/81
f 81/61/81 101/38/101 102/74/102
f 101/38/101 103/36/103 102/74/102
f 102/74/102 103/36/103 2/2/2
f 103/36/103 86/63/86 2/2/2
f 2/2/2 86/63/86 5/5/5
f 86/63/86 104/8/104 5/5/5
f 5/5/5 104/8/104 7/7/7
f 104/8/104 88/65/88 7/7/7
f 22/21/22 105/19/105 20/19/20
f 20/19/20 105/19/105 18/17/18
f 105/19/105 106/19/106 18/17/18
f 18/17/18 106/19/106 34/18/34
f 106/19/106 107/20/107 34/18/34
f 34/18/34 107/20/107 32/30/32
f 107/20/107 108/22/108 32/30/32
f 32/30/32 108/22/108 30/28/30
f 108/22/108 28/24/28 30/28/30
f 109/75/109 31/29/31 110/76/110
f 109/75/109 111/77/111 31/29/31
f 109/75/109 66/56/66 111/77/111
f 109/75/109 67/57/67 66/56/66
f 109/75/109 68/58/68 67/57/67
f 109/75/109 70/59/70 68/58/68
f 109/75/109 112/78/112 70/59/70
f 109/75/109 113/79/113 112/78/112
f 109/75/109 110/76/110 113/79/113
f 7/7/7 114/80/114 9/8/9
f 9/8/9 114/80/114 11/10/11
f 114/80/114 91/68/91 11/10/11
f 11/10/11 91/68/91 115/72/115
f 91/68/91 94/71/94 115/72/115
f 115/72/115 94/71/94 13/12/13
f 94/71/94 116/81/116 13/12/13
f 13/12/13 116/81/116 65/55/65
f 116/81/116 63/12/63 65/55/65
f 97/60/97 98/61/98 44/40/44
f 44/40/44 98/61/98 42/38/42
f 98/61/98 99/74/99 42/38/42
f 42/38/42 99/74/99 40/36/40
f 99/74/99 100/2/100 40/36/40
f 40/36/40 100/2/100 10/9/10
f 100/2/100 8/5/8 10/9/10
f 79/41/79 77/39/77 80/40/80
f 80/40/80 77/39/77 101/38/101
f 77/39/77 117/37/117 101/38/101
f 101/38/101 117/37/117 103/36/103
f 117/37/117 84/35/84 103/36/103
f 103/36/103 84/35/84 86/63/86
f 31/29/31 111/77/111 33/31/33
f 33/31/33 111/77/111 35/16/35
f 111/77/111 64/54/64 35/16/35
f 35/16/35 64/54/64 118/15/118
f 64/54/64 62/13/62 118/15/118
f 118/15/118 62/13/62 36/32/36
f 89/66/89 87/64/87 95/72/95
f 95/72/95 87/64/87 96/73/96
f 87/64/87 85/62/85 96/73/96
f 96/73/96 85/62/85 60/48/60
f 85/62/85 1/1/1 60/48/60
f 60/48/60 1/1/1 58/53/58
f 106/19/106 22/21/22 107/20/107
f 107/20/107 22/21/22 108/22/108
f 22/21/22 24/23/24 108/22/108
f 108/22/108 24/23/24 28/24/28
f 24/23/24 26/25/26 28/24/28
f 37/33/37 36/32/36 53/48/53
f 53/48/53 36/32/36 55/50/55
f 36/32/36 119/82/119 55/50/55
f 55/50/55 119/82/119 57/52/57
f 119/82/119 59/50/59 57/52/57
f 69/30/69 19/18/19 17/16/17
f 69/30/69 21/20/21 19/18/19
f 69/30/69 23/22/23 21/20/21
f 69/30/69 71/28/71 23/22/23
f 70/59/70 112/78/112 72/27/72
f 72/27/72 112/78/112 27/26/27
f 112/78/112 113/79/113 27/26/27
f 27/26/27 113/79/113 110/76/110
f 84/35/84 117/37/117 82/46/82
f 82/46/82 117/37/117 74/45/74
f 117/37/117 77/39/77 74/45/74
f 81/61/81 102/74/102 83/47/83
f 83/47/83 102/74/102 1/1/1
f 102/74/102 2/2/2 1/1/1
f 120/83/120 27/26/27 26/25/26
f 26/25/26 27/26/27 120/83/120
f 121/84/121 26/25/26 24/23/24
f 24/23/24 26/25/26 121/84/121
f 31/29/31 29/27/29 110/76/110
f 110/76/110 29/27/29 27/26/27
f 4/4/4 52/1/52 3/3/3
f 3/3/3 52/1/52 54/49/54
f 47/43/47 45/41/45 43/39/43
f 44/40/44 46/42/46 97/60/97
f 75/42/75 76/44/76 78/43/78
f 73/60/73 82/46/82 74/45/74
f 85/62/85 83/47/83 1/1/1
f 71/28/71 25/24/25 23/22/23
f 22/21/22 106/19/106 105/19/105
f 27/26/27 120/83/120 122/85/122
f 26/25/26 121/84/121 123/86/122
f 121/84/121 24/23/24 124/87/122
f 26/25/26 125/88/122 120/83/120
f 26/25/26 120/83/120 125/88/122
f 122/85/122 120/83/120 27/26/27
f 124/87/122 24/23/24 121/84/121
f 123/86/122 121/84/121 26/25/26
f 126/89/122 127/90/122 124/87/122
f 124/87/122 127/90/122 126/89/122
f 128/91/122 125/88/122 123/86/122
f 123/86/122 125/88/122 128/91/122
f 122/85/122 129/92/122 130/93/122
f 130/93/122 129/92/122 122/85/122
f 124/87/122 24/23/24 126/89/122
f 126/89/122 24/23/24 124/87/122
f 130/93/122 27/26/27 122/85/122
f 122/85/122 27/26/27 130/93/122
f 123/86/122 125/88/122 26/25/26
f 26/25/26 125/88/122 123/86/122
f 118/15/118 36/32/36 35/16/35
f 64/54/64 111/77/111 66/56/66
f 18/17/18 14/13/14 16/15/16
f 7/7/7 91/68/91 114/80/114
f 88/65/88 104/8/104 86/63/86
f 6/6/6 8/5/8 100/2/100
f 91/68/91 93/70/93 94/71/94
f 11/10/11 115/72/115 13/12/13
f 56/51/56 55/50/55 57/52/57
f 38/34/38 37/33/37 53/48/53
f 36/32/36 59/50/59 119/82/119
f 15/14/15 13/12/13 65/55/65
f 116/81/116 94/71/94 63/12/63
# 257 triangles in group

# 257 triangles total

